<svg width="55" height="68" viewBox="0 0 55 68" fill="none" xmlns="http://www.w3.org/2000/svg">
<path d="M39.1698 19.4193C38.6253 19.0111 37.6643 18.9612 37.0239 19.3083L30.0139 23.1041C29.6319 22.4599 29.3532 22.0962 29.3006 22.0293C24.8334 16.2108 28.3518 12.0131 28.5176 11.8216C28.9281 11.3557 28.6701 10.7656 27.9395 10.5024C27.2075 10.2388 26.2787 10.4028 25.8646 10.8692C25.6781 11.0795 21.3526 16.0975 26.5767 22.8965C26.5804 22.9011 26.6547 22.9973 26.7781 23.1799L19.0353 21.6137C18.2343 21.452 17.3781 21.7344 17.1235 22.2448C16.8691 22.7555 17.3127 23.3009 18.1139 23.463L28.0266 25.468C28.528 26.5828 29.0572 28.0449 29.4307 29.8281C30.2922 33.9396 30.479 40.6438 26.4769 49.2339C26.2373 49.7476 26.6969 50.2876 27.503 50.44C27.6478 50.4674 27.7935 50.4805 27.937 50.4805C28.5935 50.4805 29.1997 50.2077 29.396 49.7862C33.5784 40.8098 33.3514 33.7768 32.4249 29.4574C32.049 27.7051 31.5348 26.247 31.0316 25.0991L38.9958 20.7866C39.6363 20.4399 39.7144 19.8275 39.1698 19.4193Z" fill="#118C42" fill-opacity="0.99"/>
<path d="M41.8757 67.7317H16.2999C12.4465 67.7317 9.19997 65.8498 8.73653 63.3477L4.62012 41.1257H53.5554L49.439 63.3477C48.9756 65.8498 45.729 67.7317 41.8757 67.7317Z" fill="#118C42" fill-opacity="0.99"/>
<path d="M35.908 9.13134C38.4131 6.04986 38.0351 2.75672 35.0636 1.77591C32.0922 0.795106 27.6525 2.49804 25.1473 5.57952C22.6422 8.66101 23.0202 11.9541 25.9916 12.935C28.9631 13.9158 33.4028 12.2128 35.908 9.13134Z" fill="#118C42" fill-opacity="0.99"/>
<path d="M35.0675 1.78184C33.532 1.27583 31.6049 1.48744 29.7552 2.23378C31.8146 3.55366 31.843 6.4252 29.6411 9.13467C28.4306 10.6241 26.7677 11.7903 25.0371 12.4887C25.3199 12.6698 25.6398 12.8224 25.9987 12.9406C28.971 13.9201 33.4106 12.216 35.915 9.13454C38.4194 6.05306 38.0398 2.76127 35.0675 1.78184Z" fill="#118C42" fill-opacity="0.99"/>
<path d="M45.9938 21.894C50.8826 19.3939 52.8914 15.8156 50.4806 13.9016C48.0698 11.9876 42.1524 12.4627 37.2636 14.9627C32.3748 17.4628 30.3659 21.0411 32.7767 22.9551C35.1875 24.8691 41.105 24.3941 45.9938 21.894Z" fill="#118C42" fill-opacity="0.99"/>
<path d="M50.464 13.8899C48.8982 12.6454 45.851 12.4113 42.5677 13.0855C43.2047 13.2776 43.7553 13.5441 44.1903 13.8899C46.5991 15.8045 44.5894 19.3829 39.7012 21.8827C37.9901 22.7578 36.1536 23.3836 34.3853 23.7467C37.2758 24.6183 41.9695 23.9311 45.9751 21.8827C50.8631 19.3831 52.8728 15.8045 50.464 13.8899Z" fill="#118C42" fill-opacity="0.99"/>
<path d="M23.7367 23.6595C24.7996 21.3013 20.7784 18.4961 14.7552 17.3938C8.73191 16.2916 2.98745 17.3097 1.92455 19.6679C0.86165 22.026 4.88281 24.8313 10.9061 25.9335C16.9293 27.0358 22.6738 26.0177 23.7367 23.6595Z" fill="#118C42" fill-opacity="0.99"/>
<path d="M14.755 17.3891C11.9425 16.875 9.19183 16.8235 6.94971 17.1544C7.45639 17.2179 7.96754 17.2953 8.48113 17.3891C14.5059 18.4902 18.5308 21.2953 17.4709 23.6545C16.9058 24.9122 15.009 25.7891 12.4485 26.1671C17.8865 26.8487 22.7753 25.8125 23.7448 23.6545C24.8047 21.2951 20.7798 18.4901 14.755 17.3891Z" fill="#118C42" fill-opacity="0.99"/>
</svg>
