<svg width="65" height="48" viewBox="0 0 65 48" fill="none" xmlns="http://www.w3.org/2000/svg">
<path d="M46.1911 6.00034C39.2459 7.59341 36.8321 12.8173 37.2336 15.0004C37.3609 14.9333 37.4855 14.8686 37.6142 14.7985C38.2245 14.4714 38.8888 14.1619 39.578 13.8428C40.2631 13.5217 41.0009 13.2237 41.744 12.9214C42.1177 12.7691 42.5094 12.6354 42.897 12.4976L43.4811 12.2896C43.733 12.2031 43.888 12.1675 44.0957 12.104L45.2666 11.7637C45.6736 11.6622 46.0777 11.563 46.4777 11.4638C47.2873 11.2685 48.0694 11.0962 48.8305 10.959C50.3516 10.6567 51.7814 10.4367 53.0117 10.2704C55.4754 9.94268 57.1542 9.88045 57.1542 9.88045C57.1542 9.88045 56.7708 10.0244 56.0981 10.2752C55.4227 10.5207 54.4595 10.8459 53.2996 11.2353C52.7155 11.4208 52.0886 11.6227 51.4243 11.8355C50.7586 12.0423 50.0554 12.2587 49.3302 12.483C48.6119 12.7043 47.8743 12.9352 47.12 13.1703C46.3823 13.388 45.6127 13.6455 44.8405 13.9043C44.1208 14.1394 43.3734 14.4527 42.6399 14.7066C41.9119 14.9961 40.6635 15.3753 39.9577 15.6388C39.1064 15.9508 38.568 16.1195 38.0269 16.3697C31.9683 19.4584 29.2839 24.9261 27.6466 30.7118C27.356 25.2767 26.0508 20.0037 21.5596 16.1146C21.5637 16.1122 21.5699 16.111 21.5741 16.108C20.9659 15.6104 20.334 15.0754 19.6835 14.5023C19.1493 14.0211 18.5847 13.5428 18.0352 13.0326C17.4712 12.5526 16.9169 12.0152 16.3515 11.5569C15.7488 11.0593 15.1537 10.5667 14.5654 10.1168C13.9716 9.6513 13.3911 9.19186 12.825 8.7463C12.2513 8.29711 11.697 7.86366 11.1725 7.4501C10.6528 7.03166 10.1566 6.63508 9.70338 6.26873C8.80033 5.52454 8.04947 4.90067 7.53459 4.44838C7.02446 3.99194 6.73383 3.7308 6.73383 3.7308C6.73383 3.7308 8.2563 4.34866 10.3906 5.47256C11.4548 6.0372 12.6791 6.71678 13.9552 7.50332C14.598 7.88603 15.2458 8.3056 15.908 8.75479C16.2339 8.98145 16.5653 9.20698 16.8941 9.43488L17.8284 10.1403C17.9924 10.2692 18.1204 10.3519 18.3142 10.5169L18.7654 10.9045C19.0658 11.162 19.3675 11.4172 19.645 11.6808C20.2048 12.2068 20.7522 12.7297 21.247 13.2545C21.7439 13.7793 22.2221 14.2871 22.6428 14.7926C22.732 14.9014 22.8158 15.0005 22.9051 15.1057C24.233 13.2225 24.285 7.58854 18.5599 3.79852C12.3255 -0.324619 3.63792 1.52535 0 0C3.67325 4.90906 2.96801 8.18642 9.13884 13.5737C13.2626 17.178 17.1138 17.4012 19.7081 16.7742C24.9847 21.2117 25.8083 27.9767 25.811 34.4505C25.2712 34.0684 24.6152 33.7685 23.8581 33.7685C21.7225 33.7685 20.1675 34.818 19.4222 36.3149C14.7213 34.9172 11.599 38.166 11.3284 40.9024C9.09179 40.1757 6.25439 42.4234 6.25439 44.3763C6.25439 46.3048 7.99898 47.8657 10.1844 47.9468L44.7875 48C44.7875 48 48.4745 46.2636 48.4745 44.375C48.4745 42.3957 46.6379 40.7887 44.3723 40.7887C44.0581 40.7887 43.7576 40.8249 43.4671 40.8829C43.4864 40.7439 43.0712 34.6572 37.0174 37.102C36.5468 35.1976 35.9296 33.7685 32.2923 33.7685C30.5007 33.7685 29.2875 34.3368 28.5111 34.9147C30.026 28.1822 32.3671 21.1487 39.1905 17.6696C39.2652 17.6327 39.304 17.5831 39.3565 17.5384C41.4658 19.0165 45.1529 20.1585 50.6254 18.1731C58.6805 15.2501 59.4597 11.9866 65 8.67537C60.9753 8.87262 53.7534 4.26644 46.1911 6.00034ZM27.3334 36.0478L27.5597 35.8495C27.4456 36.0043 27.3756 36.1167 27.3756 36.1167C27.3756 36.1167 27.3528 36.078 27.3334 36.0478Z" fill="#DC8758"/>
</svg>
