<svg width="39" height="34" viewBox="0 0 39 34" fill="none" xmlns="http://www.w3.org/2000/svg">
<path d="M38.5234 31.5818L27.4329 21.913C29.5812 19.5996 30.8746 16.66 30.8746 13.4584C30.8746 6.03785 23.9489 0 15.4373 0C6.92562 0 0 6.03779 0 13.4583C0 20.8788 6.9257 26.9166 15.4374 26.9166C19.1098 26.9166 22.4817 25.789 25.1352 23.9161L36.2257 33.5849C36.5426 33.8611 36.9586 34 37.3746 34C37.7907 34 38.2066 33.8611 38.5235 33.5849C39.1588 33.031 39.1588 32.1356 38.5234 31.5818ZM15.4374 24.0833C8.7164 24.0833 3.24999 19.3176 3.24999 13.4583C3.24999 7.59893 8.7164 2.83329 15.4374 2.83329C22.1583 2.83329 27.6247 7.59893 27.6247 13.4583C27.6247 19.3176 22.1582 24.0833 15.4374 24.0833Z" fill="#0C9B70"/>
</svg>
