<svg width="31" height="38" viewBox="0 0 31 38" fill="none" xmlns="http://www.w3.org/2000/svg">
<path d="M22.0292 10.818C21.723 10.5906 21.1826 10.5628 20.8224 10.7562L16.8799 12.8707C16.665 12.5119 16.5083 12.3092 16.4787 12.272C13.9663 9.03065 15.9451 6.69218 16.0384 6.58553C16.2692 6.32598 16.1241 5.99726 15.7132 5.85062C15.3015 5.70377 14.7792 5.79514 14.5463 6.05498C14.4414 6.17214 12.0087 8.96752 14.9468 12.7551C14.9488 12.7577 14.9906 12.8113 15.06 12.9129L10.7054 12.0405C10.2549 11.9504 9.77336 12.1077 9.63019 12.392C9.48714 12.6765 9.73659 12.9804 10.1872 13.0707L15.7622 14.1876C16.0442 14.8086 16.3418 15.6231 16.5519 16.6165C17.0364 18.9069 17.1415 22.6417 14.8906 27.427C14.7559 27.7132 15.0144 28.014 15.4677 28.0989C15.5491 28.1142 15.6311 28.1214 15.7118 28.1214C16.0811 28.1214 16.422 27.9695 16.5324 27.7347C18.8846 22.7342 18.7569 18.8162 18.2359 16.41C18.0244 15.4339 17.7352 14.6216 17.4522 13.9821L21.9314 11.5797C22.2916 11.3866 22.3356 11.0454 22.0292 10.818Z" fill="#118C42" fill-opacity="0.99"/>
<path d="M23.5515 37.7317H9.16744C7.00029 37.7317 5.17439 36.6833 4.91374 35.2895L2.59863 22.9101H30.1203L27.8052 35.2895C27.5446 36.6833 25.7187 37.7317 23.5515 37.7317Z" fill="#118C42" fill-opacity="0.99"/>
<path d="M20.1948 5.08685C21.6037 3.37023 21.3911 1.5357 19.7199 0.989314C18.0487 0.44293 15.5518 1.39159 14.1429 3.10821C12.734 4.82483 12.9466 6.65936 14.6177 7.20575C16.2889 7.75213 18.7858 6.80347 20.1948 5.08685Z" fill="#118C42" fill-opacity="0.99"/>
<path d="M19.7222 0.992614C18.8587 0.710727 17.7749 0.828612 16.7346 1.24438C17.8928 1.97965 17.9088 3.57932 16.6704 5.0887C15.9896 5.91844 15.0543 6.5681 14.0811 6.95714C14.2401 7.05802 14.42 7.14304 14.6219 7.2089C16.2935 7.75452 18.7904 6.80524 20.1989 5.08863C21.6074 3.37201 21.3939 1.53823 19.7222 0.992614Z" fill="#118C42" fill-opacity="0.99"/>
<path d="M25.8669 12.1966C28.6164 10.8039 29.7462 8.8105 28.3903 7.74425C27.0345 6.67799 23.7064 6.94265 20.9569 8.33537C18.2074 9.72809 17.0776 11.7215 18.4335 12.7877C19.7893 13.854 23.1174 13.5893 25.8669 12.1966Z" fill="#118C42" fill-opacity="0.99"/>
<path d="M28.3817 7.73773C27.5011 7.04447 25.7873 6.91405 23.9408 7.28961C24.299 7.39661 24.6087 7.54512 24.8533 7.73773C26.208 8.80432 25.0778 10.7978 22.3286 12.1904C21.3663 12.6778 20.3334 13.0264 19.3389 13.2287C20.9645 13.7143 23.6043 13.3314 25.8571 12.1904C28.6062 10.7978 29.7364 8.80432 28.3817 7.73773Z" fill="#118C42" fill-opacity="0.99"/>
<path d="M13.3497 13.1802C13.9475 11.8665 11.686 10.3037 8.29845 9.68969C4.91091 9.07565 1.68017 9.64282 1.08239 10.9565C0.484601 12.2702 2.74614 13.8329 6.13367 14.447C9.52121 15.061 12.7519 14.4938 13.3497 13.1802Z" fill="#118C42" fill-opacity="0.99"/>
<path d="M8.29799 9.68703C6.71618 9.40067 5.1692 9.37199 3.9082 9.55631C4.19317 9.59169 4.48065 9.63478 4.76949 9.68703C8.1579 10.3004 10.4215 11.8631 9.82545 13.1773C9.5076 13.878 8.44081 14.3665 7.0008 14.577C10.0592 14.9568 12.8087 14.3795 13.3539 13.1773C13.95 11.863 11.6864 10.3004 8.29799 9.68703Z" fill="#118C42" fill-opacity="0.99"/>
</svg>
